<svg id="instagram" xmlns="http://www.w3.org/2000/svg" width="33.215" height="33.215" viewBox="0 0 33.215 33.215">
  <path id="Path_990" data-name="Path 990" d="M23.32,0H9.895A9.906,9.906,0,0,0,0,9.895V23.32a9.906,9.906,0,0,0,9.895,9.895H23.32a9.906,9.906,0,0,0,9.895-9.895V9.895A9.906,9.906,0,0,0,23.32,0Zm6.553,23.32a6.554,6.554,0,0,1-6.553,6.553H9.895A6.554,6.554,0,0,1,3.341,23.32V9.895A6.553,6.553,0,0,1,9.895,3.341H23.32a6.553,6.553,0,0,1,6.553,6.553V23.32Z" fill="#f6a192"/>
  <path id="Path_991" data-name="Path 991" d="M141.591,133a8.59,8.59,0,1,0,8.591,8.59A8.6,8.6,0,0,0,141.591,133Zm0,13.84a5.249,5.249,0,1,1,5.249-5.249A5.249,5.249,0,0,1,141.591,146.84Z" transform="translate(-124.983 -124.983)" fill="#f6a192"/>
  <circle id="Ellipse_25" data-name="Ellipse 25" cx="2.058" cy="2.058" r="2.058" transform="translate(23.156 6.023)" fill="#f6a192"/>
</svg>
