<svg xmlns="http://www.w3.org/2000/svg" width="12.467" height="12.467" viewBox="0 0 12.467 12.467">
  <path id="_5b" data-name="5b" d="M12.3,11.436,7.068,6.209l5.154-5.178a.6.6,0,0,0,.2-.429.523.523,0,0,0-.2-.4A.61.61,0,0,0,11.78,0a.535.535,0,0,0-.417.2L6.209,5.325,1.1.245a.547.547,0,0,0-.429-.2.547.547,0,0,0-.429.2.61.61,0,0,0-.2.442.535.535,0,0,0,.2.417l5.08,5.08L.2,11.362a.541.541,0,0,0,0,.834.568.568,0,0,0,.417.172.568.568,0,0,0,.417-.172L6.209,7.043l5.227,5.227a.61.61,0,0,0,.442.2.535.535,0,0,0,.417-.2.592.592,0,0,0,0-.834Zm.172,1.031" fill="#272623"/>
</svg>
