<svg xmlns="http://www.w3.org/2000/svg" width="40" height="40" viewBox="0 0 40 40">
  <g id="Group_766" data-name="Group 766" transform="translate(-145 -602)">
    <g id="Ellipse_28" data-name="Ellipse 28" transform="translate(145 602)" fill="#fff" stroke="#272623" stroke-width="1">
      <circle cx="20" cy="20" r="20" stroke="none"/>
      <circle cx="20" cy="20" r="19.5" fill="none"/>
    </g>
    <path id="Path_1014" data-name="Path 1014" d="M9.236-44.174a9.757,9.757,0,0,1-3.684-3.672,10.175,10.175,0,0,1-1.34-5.161,10.175,10.175,0,0,1,1.34-5.161A9.757,9.757,0,0,1,9.236-61.84a10.243,10.243,0,0,1,5.173-1.34,11.217,11.217,0,0,1,5.049,1.067,7.732,7.732,0,0,1,3.3,3.015,8.668,8.668,0,0,1,1.154,4.5,8.318,8.318,0,0,1-.744,3.573,6.032,6.032,0,0,1-2.047,2.481,5,5,0,0,1-2.891.893A4.175,4.175,0,0,1,16.494-48a2.292,2.292,0,0,1-1.141-1.092,4.724,4.724,0,0,1-1.464,1.017,4.2,4.2,0,0,1-1.762.4A3.779,3.779,0,0,1,9.075-48.9a4.645,4.645,0,0,1-1.042-3.114,7,7,0,0,1,.93-3.585,7.006,7.006,0,0,1,2.407-2.506,5.741,5.741,0,0,1,3.039-.906,3.621,3.621,0,0,1,1.824.459,3.058,3.058,0,0,1,1.2,1.179l.4-1.216h2.035l-2.357,8.262a3.6,3.6,0,0,0-.149.918.874.874,0,0,0,.323.757,1.8,1.8,0,0,0,1.042.236,3.409,3.409,0,0,0,2.221-.856,5.811,5.811,0,0,0,1.625-2.283,7.811,7.811,0,0,0,.6-3.039,7.951,7.951,0,0,0-1.079-4.193,7.139,7.139,0,0,0-3.064-2.754,10.413,10.413,0,0,0-4.615-.968,9.432,9.432,0,0,0-4.8,1.253,9.166,9.166,0,0,0-3.424,3.436,9.5,9.5,0,0,0-1.253,4.813,9.365,9.365,0,0,0,1.253,4.789,9.127,9.127,0,0,0,3.424,3.4,9.505,9.505,0,0,0,4.8,1.241,11.925,11.925,0,0,0,3.188-.372,12.9,12.9,0,0,0,2.791-1.191l.347.645a13.761,13.761,0,0,1-3,1.265,12.549,12.549,0,0,1-3.325.4A10.243,10.243,0,0,1,9.236-44.174Zm5.992-5.88,1.935-6.476a2.64,2.64,0,0,0-2.531-1.712,2.921,2.921,0,0,0-2.171,1.054A7.264,7.264,0,0,0,10.936-54.5a10.451,10.451,0,0,0-.546,3.325,3.142,3.142,0,0,0,.521,1.886,1.831,1.831,0,0,0,1.588.72A3.274,3.274,0,0,0,15.228-50.055Z" transform="translate(151.116 674.807)" fill="#272623"/>
  </g>
</svg>
