<svg xmlns="http://www.w3.org/2000/svg" width="40" height="40" viewBox="0 0 40 40">
  <g id="Group_764" data-name="Group 764" transform="translate(-896 -602)">
    <g id="Ellipse_26" data-name="Ellipse 26" transform="translate(896 602)" fill="#fff" stroke="#272623" stroke-width="1">
      <circle cx="20" cy="20" r="20" stroke="none"/>
      <circle cx="20" cy="20" r="19.5" fill="none"/>
    </g>
    <path id="e670" d="M15.472,21.967a5.361,5.361,0,0,1-1.862-.454,14.37,14.37,0,0,1-2.531-1.361A21.631,21.631,0,0,1,8.19,17.836,23.116,23.116,0,0,1,5.3,14.517Q3.964,12.7,2.961,11.174A22.73,22.73,0,0,1,1.337,8.309a14.3,14.3,0,0,1-1-2.388A6.818,6.818,0,0,1,0,3.964,3.13,3.13,0,0,1,.215,2.77a4.08,4.08,0,0,1,.5-.907,7.518,7.518,0,0,1,.669-.6Q1.719,1,1.958.812L2.1.716A3.156,3.156,0,0,1,3.414.143,6.41,6.41,0,0,1,4.489,0a1.234,1.234,0,0,1,.86.263,1.73,1.73,0,0,1,.43.6q.143.239.883,1.839T7.5,4.584a1.265,1.265,0,0,1,.119.454,1.742,1.742,0,0,1-.024.5,2.639,2.639,0,0,1-.239.525,1.615,1.615,0,0,1-.382.43l-.1.048a6.6,6.6,0,0,0-.645.5,1.094,1.094,0,0,0-.406.692.716.716,0,0,0,.024.406,1.425,1.425,0,0,0,.215.406q.43.573,1.194,1.552t1.576,1.982q.812,1,1.5,1.815a9.609,9.609,0,0,0,.931,1,1.5,1.5,0,0,0,.382.287.848.848,0,0,0,.382.1.976.976,0,0,0,.43,0,.708.708,0,0,0,.334-.191,4.69,4.69,0,0,0,.478-.454l.143-.167h.048a2.031,2.031,0,0,1,.287-.191,1.3,1.3,0,0,1,.669-.143,1.66,1.66,0,0,1,.6.119,3.044,3.044,0,0,1,.6.31q.812.525,2.125,1.409l1.313.883.048.048a1.626,1.626,0,0,1,.43.716,1.519,1.519,0,0,1-.191,1.242,6.664,6.664,0,0,1-.6.931,7.051,7.051,0,0,1-.931,1.027,6.088,6.088,0,0,1-1.122.812A2.465,2.465,0,0,1,15.472,21.967ZM4.489.812a5.018,5.018,0,0,0-.883.119,2.832,2.832,0,0,0-1.027.406l-.143.143a6.24,6.24,0,0,0-.525.358,2.479,2.479,0,0,0-.525.549,2.772,2.772,0,0,0-.406.669,2.252,2.252,0,0,0-.167.907A6.016,6.016,0,0,0,1.146,5.8,16.719,16.719,0,0,0,2.1,8.07a29.072,29.072,0,0,0,1.576,2.722q.955,1.48,2.244,3.247a26.581,26.581,0,0,0,2.889,3.223,21.843,21.843,0,0,0,2.746,2.221,12.738,12.738,0,0,0,2.316,1.265,4.74,4.74,0,0,0,1.6.406,1.9,1.9,0,0,0,.931-.287,5.52,5.52,0,0,0,.931-.669,7.772,7.772,0,0,0,.764-.883,5.84,5.84,0,0,0,.525-.836.9.9,0,0,0,.1-.669,1.1,1.1,0,0,0-.143-.287q-.191-.143-1.433-.979t-1.958-1.313a1.544,1.544,0,0,0-.382-.215,1.081,1.081,0,0,0-.382-.072.665.665,0,0,0-.287.048.556.556,0,0,0-.143.1l-.215.215q-.167.167-.454.406a1.689,1.689,0,0,1-.621.334,1.59,1.59,0,0,1-.669.048,1.86,1.86,0,0,1-.692-.143,1.908,1.908,0,0,1-.645-.43q-.239-.239-.955-1.1T8.166,12.559q-.812-1.051-1.6-2.03T5.4,9.025a2.137,2.137,0,0,1-.334-.692,1.921,1.921,0,0,1-.048-.74,1.687,1.687,0,0,1,.215-.573,2.335,2.335,0,0,1,.358-.478,1.816,1.816,0,0,1,.406-.382q.215-.143.406-.287l.1-.048a.7.7,0,0,0,.287-.549,1.087,1.087,0,0,0-.048-.406q-.1-.239-.812-1.815t-.86-1.862A.843.843,0,0,0,4.847.907.566.566,0,0,0,4.489.812ZM22.015,21.68" transform="translate(906.008 610.954)"/>
  </g>
</svg>
