<svg xmlns="http://www.w3.org/2000/svg" width="25.097" height="20.392" viewBox="0 0 25.097 20.392">
  <path id="e014" d="M23.529,0H1.569a1.507,1.507,0,0,0-1.1.466A1.507,1.507,0,0,0,0,1.569V17.254a1.507,1.507,0,0,0,.466,1.1,1.507,1.507,0,0,0,1.1.466h21.96A1.59,1.59,0,0,0,25.1,17.254V1.569a1.507,1.507,0,0,0-.466-1.1A1.507,1.507,0,0,0,23.529,0Zm0,17.254H1.569V7.843h21.96ZM1.569,4.755V1.569h21.96V4.755ZM3.921,15.686h7.843a.785.785,0,1,0,0-1.569H3.921a.785.785,0,1,0,0,1.569Zm10.2-.784a.755.755,0,1,0,.221-.564A.763.763,0,0,0,14.117,14.9Zm3.137,0a.755.755,0,1,0,.221-.564A.763.763,0,0,0,17.254,14.9Zm3.137,0a.755.755,0,1,0,.221-.564A.763.763,0,0,0,20.392,14.9Zm4.706,5.49" fill="#dfdfde"/>
</svg>
