<svg xmlns="http://www.w3.org/2000/svg" width="26.855" height="23.756" viewBox="0 0 26.855 23.756">
  <path id="e922" d="M1.033,2.066H19.625a.993.993,0,0,0,.726-.307.993.993,0,0,0,.307-.726.993.993,0,0,0-.307-.726A.993.993,0,0,0,19.625,0H1.033A.993.993,0,0,0,.307.307.993.993,0,0,0,0,1.033a.993.993,0,0,0,.307.726A.993.993,0,0,0,1.033,2.066Zm18.592,14.46H1.033a.993.993,0,0,0-.726.307,1.013,1.013,0,0,0,0,1.452.993.993,0,0,0,.726.307H19.625a1.033,1.033,0,0,0,0-2.066Zm0-8.263H1.033a.993.993,0,0,0-.726.307,1.013,1.013,0,0,0,0,1.452.993.993,0,0,0,.726.307H19.625a1.033,1.033,0,0,0,0-2.066Zm7.23,15.493" transform="translate(0)"/>
</svg>
