<svg xmlns="http://www.w3.org/2000/svg" width="24.869" height="18.652" viewBox="0 0 24.869 18.652">
  <path id="f045" d="M3.109,12.435H6.217V10.88H3.109Zm4.663,0H10.88V10.88H7.772ZM9.326,7.772H3.109V9.326H9.326ZM6.217,6.217H7.772L10.88,3.109H9.326ZM10.88,9.326h4.663V7.772H10.88ZM23.315,0H1.554A1.485,1.485,0,0,0,.486.486,1.485,1.485,0,0,0,0,1.554V13.989a1.485,1.485,0,0,0,.486,1.069,1.485,1.485,0,0,0,1.069.486h21.76a1.672,1.672,0,0,0,1.554-1.554V1.554A1.485,1.485,0,0,0,24.383.486,1.485,1.485,0,0,0,23.315,0Zm0,6.217v6.994l-.1.389q-.1.389-.68.389H2.331q-.583,0-.68-.389l-.1-.389V6.217H3.109L6.217,3.109H1.554V2.331l.1-.389q.1-.389.68-.389H22.538q.583,0,.68.389l.1.389v.777H13.989L10.88,6.217Zm1.554,12.435" fill="#dfdfde"/>
</svg>
