<svg xmlns="http://www.w3.org/2000/svg" width="24.869" height="19.896" viewBox="0 0 24.869 19.896">
  <path id="f09d" d="M22.8,0A2,2,0,0,1,24.26.609a2,2,0,0,1,.609,1.464v15.75A2.079,2.079,0,0,1,22.8,19.9H2.072a2,2,0,0,1-1.464-.609A2,2,0,0,1,0,17.823V2.072A2,2,0,0,1,.609.609,2,2,0,0,1,2.072,0ZM2.072,1.658a.42.42,0,0,0-.414.414v2.9H23.211v-2.9a.42.42,0,0,0-.414-.414ZM22.8,18.237a.42.42,0,0,0,.414-.414V9.948H1.658v7.875a.42.42,0,0,0,.414.414ZM3.316,16.579V14.921H6.632v1.658Zm4.974,0V14.921h4.974v1.658Zm16.579,1.658" fill="#dfdfde"/>
</svg>
