<svg xmlns="http://www.w3.org/2000/svg" width="49.341" height="46.156" viewBox="0 0 49.341 46.156">
  <path id="f19c" d="M24.17,0l24.17,9.668v3.223H45.118a1.5,1.5,0,0,1-.516,1.133,1.736,1.736,0,0,1-1.221.478H4.96a1.736,1.736,0,0,1-1.221-.478,1.5,1.5,0,0,1-.516-1.133H0V9.668ZM6.445,16.114h6.445V35.45h3.223V16.114h6.445V35.45h3.223V16.114h6.445V35.45H35.45V16.114H41.9V35.45h1.485a1.736,1.736,0,0,1,1.221.478,1.5,1.5,0,0,1,.516,1.133v1.611H3.223V37.061a1.5,1.5,0,0,1,.516-1.133A1.736,1.736,0,0,1,4.96,35.45H6.445ZM46.6,40.284a1.736,1.736,0,0,1,1.221.478,1.5,1.5,0,0,1,.516,1.133v3.223H0V41.9a1.5,1.5,0,0,1,.516-1.133,1.736,1.736,0,0,1,1.221-.478Zm4.96-1.611" transform="translate(0.5 0.538)" fill="#fff0ad" stroke="#f7cd11" stroke-width="1"/>
</svg>
