<svg xmlns="http://www.w3.org/2000/svg" width="20.343" height="19.277" viewBox="0 0 20.343 19.277">
  <path id="f388" d="M9.171,16.932,7.849,15.741q-2.293-2.116-3.307-3.087T2.227,10.186A9.836,9.836,0,0,1,.463,7.518,6.583,6.583,0,0,1,0,5.071,4.909,4.909,0,0,1,1.455,1.455,4.856,4.856,0,0,1,5.027,0,5.18,5.18,0,0,1,9.171,1.94,5.18,5.18,0,0,1,13.316,0a4.856,4.856,0,0,1,3.572,1.455,4.909,4.909,0,0,1,1.455,3.616,6.583,6.583,0,0,1-.463,2.447,9.836,9.836,0,0,1-1.764,2.668q-1.3,1.5-2.315,2.469t-3.307,3.087Zm9.171,0" transform="translate(1 1)" fill="#b8b8b7" stroke="#fff" stroke-width="2"/>
</svg>
