<svg xmlns="http://www.w3.org/2000/svg" width="145.431" height="57.418" viewBox="0 0 145.431 57.418">
  <g id="janelle_clothings_logo" data-name="janelle clothings logo" transform="translate(-0.003 -0.009)">
    <g id="Layer_1" data-name="Layer 1" transform="translate(0.003 0.009)">
      <path id="Path_929" data-name="Path 929" d="M209.795,39.82a13.329,13.329,0,0,1-4.207-.461,14.967,14.967,0,0,1-3.328-1.366,8.307,8.307,0,0,1-2.63-2.622,9.379,9.379,0,0,1-1.529-5,2.7,2.7,0,0,1,.087-.6c.048-.255.125-.53.161-.8.015-.12-.015-.334-.079-.357a.576.576,0,0,0-.431.033,2.62,2.62,0,0,0-.533.418q-1.756,1.712-3.5,3.432c-1.241,1.226-2.464,2.474-3.71,3.695q-2.385,2.326-4.8,4.627c-.9.861-1.875,1.651-2.726,2.561a11.284,11.284,0,0,1-2.214,1.608,17.119,17.119,0,0,1-1.587,1.037A24.088,24.088,0,0,1,175.5,47.51a6.839,6.839,0,0,1-3.965.1,2.607,2.607,0,0,1-1.44-.978c-.543-.7-.777-.739-1.529-.232a7.691,7.691,0,0,1-2.706,1.386,3.279,3.279,0,0,1-2.263-.229,3.109,3.109,0,0,1-1.86-2.293,10.7,10.7,0,0,0-.234-1.205c-.117-.456-.308-.5-.66-.168-.464.433-.943.854-1.384,1.31a14.564,14.564,0,0,1-3.109,2.181,3.921,3.921,0,0,1-3.618.1,3.055,3.055,0,0,1-1.162-1.113,3.644,3.644,0,0,1-.706-2.293,13.358,13.358,0,0,0,0-1.5.764.764,0,0,0-.255-.51c-.071-.054-.336.076-.466.181q-.864.719-1.7,1.468a18.2,18.2,0,0,1-4.248,2.785,10.785,10.785,0,0,0-.976.474,6.179,6.179,0,0,1-3,.813c-1.233.059-2.53.127-3.5-.917a2.65,2.65,0,0,1-.436-.6c-.344-.668-.555-.731-1.218-.324-.764.464-1.48.973-2.265,1.368a4.617,4.617,0,0,1-3.822.283.7.7,0,0,1-.331-.219,2.95,2.95,0,0,1-.741-2.069,22.1,22.1,0,0,1,.533-2.38,6.115,6.115,0,0,1,.476-1.274c.482-.922,1.019-1.822,1.508-2.737.11-.206.275-.583.2-.645-.255-.217-.51,0-.713.166-.805.627-1.636,1.226-2.4,1.9-1.063.945-2.089,1.937-3.1,2.94a5.519,5.519,0,0,0-1.661,2.525,9.774,9.774,0,0,0-.211,1.335c-.079.719-.489,1-1.175.764a1.951,1.951,0,0,1-1.424-1.934,14.132,14.132,0,0,0,0-1.432,3.009,3.009,0,0,0-.132-.568,2.589,2.589,0,0,0-.51.255c-.813.657-1.587,1.358-2.421,1.99a7.419,7.419,0,0,1-2.762,1.552,2.77,2.77,0,0,1-1.86-.153.721.721,0,0,1-.446-.55,2.6,2.6,0,0,1,.046-1.529c.211-.545.377-1.108.553-1.664a.884.884,0,0,0,.031-.336c-.023-.2-.13-.306-.321-.178a4.958,4.958,0,0,0-.764.568c-.764.749-1.483,1.529-2.237,2.293q-.622.622-1.292,1.205a1.489,1.489,0,0,1-2.4-.395,4.026,4.026,0,0,1-.392-3.567,9.3,9.3,0,0,1,2.365-4.141,9.428,9.428,0,0,1,4.711-2.851c.968-.227,1.952-.4,2.938-.527a3.228,3.228,0,0,1,2.176.382l.061.031a1.234,1.234,0,0,1,.66,1.175c-.074.41-.395.527-.744.589a1.042,1.042,0,0,1-1.172-.566.51.51,0,0,0-.5-.349,2.994,2.994,0,0,0-1.05.2,14.953,14.953,0,0,0-2.548,1.565,10.488,10.488,0,0,0-2.2,2.385,14.387,14.387,0,0,0-1.577,2.77,2.549,2.549,0,0,0-.125.316c-.069.324.127.51.423.359a3.294,3.294,0,0,0,.665-.466c1.348-1.144,2.665-2.324,4.039-3.437a9.293,9.293,0,0,1,4.054-1.84,1.274,1.274,0,0,1,.405-.015c.489.059.657.392.413.828-.589,1.045-1.205,2.074-1.784,3.126-.336.614-.622,1.256-.91,1.893a1.48,1.48,0,0,0-.051.443c.194,0,.426.076.571,0a4.271,4.271,0,0,0,.8-.629c.976-.912,1.949-1.827,2.91-2.754a20.033,20.033,0,0,0,1.8-1.832c.619-.764,1.113-1.643,1.679-2.461a3.441,3.441,0,0,1,2.548-1.613c.632-.064,1.274-.122,1.9-.133.227,0,.64.115.652.219a1.483,1.483,0,0,1-.2.808c-.2.4-.471.764-.7,1.152-.046.076-.015.2-.018.3.11,0,.24.046.321,0a4.518,4.518,0,0,0,.915-.586,8.21,8.21,0,0,1,3.1-1.646,3.867,3.867,0,0,1,2.844.352,1.192,1.192,0,0,1,.65,1.493,6.907,6.907,0,0,1-.573,1.3c-.364.678-.764,1.338-1.154,2-.127.211-.324.385-.436.6-.538,1.05-1.06,2.107-1.58,3.165a1.23,1.23,0,0,0-.1.395c-.082.642.369,1.019.966.764a3.674,3.674,0,0,0,.961-.51,12.756,12.756,0,0,0,2.693-2.464,1.727,1.727,0,0,0,.268-.469,9.222,9.222,0,0,1,3.735-4.951,9.767,9.767,0,0,1,6.1-1.952,2.366,2.366,0,0,1,1.763.561c.8.8,1.05,1.274.53,2.255a8,8,0,0,1-2.637,2.78,11.441,11.441,0,0,1-5.534,2.123c-.566.059-.673.153-.691.708a10.4,10.4,0,0,0,.043,1.292.871.871,0,0,0,.66.764,3.038,3.038,0,0,0,2.372-.3,21.562,21.562,0,0,0,3.822-2.339,40.831,40.831,0,0,0,4.994-4.406,2.8,2.8,0,0,0,.525-.861c.39-.943.716-1.911,1.121-2.849a20.306,20.306,0,0,1,2.421-4.319,23.724,23.724,0,0,1,2.382-2.785,9.244,9.244,0,0,1,4.719-2.683,4.332,4.332,0,0,1,1.954.112,1.139,1.139,0,0,1,.7,1.019,1.929,1.929,0,0,1-.082,1.063,15.013,15.013,0,0,1-1.075,2.1c-.612.981-1.274,1.931-1.952,2.867-.466.64-.991,1.236-1.506,1.837-.958,1.121-1.9,2.26-2.9,3.338s-2.1,2.066-3.119,3.137a2.1,2.1,0,0,0-.568,1.124c-.1.943-.064,1.9-.079,2.851a1.062,1.062,0,0,0,.041.255c.2.764.568,1.032,1.333.813a5.605,5.605,0,0,0,1.417-.642,16.07,16.07,0,0,0,3.975-3.654c.336-.426.708-.826,1.037-1.256a2.1,2.1,0,0,0,.336-.655c.255-.846.454-1.712.752-2.548a22.081,22.081,0,0,1,1.1-2.548,36.782,36.782,0,0,1,1.916-3.419,15.6,15.6,0,0,1,4.459-4.6,7.135,7.135,0,0,1,4.023-1.274,1.589,1.589,0,0,1,1.437,2.314,16.184,16.184,0,0,1-1.21,2.344,30.51,30.51,0,0,1-1.817,2.548c-.933,1.2-1.852,2.405-2.879,3.519-1.529,1.664-3.152,3.249-4.734,4.867-.076.079-.189.155-.217.255a5.914,5.914,0,0,0-.138,4.253c.242.545.405.66,1,.53a2.969,2.969,0,0,0,.958-.341c.78-.51,1.529-1.045,2.293-1.587a1.847,1.847,0,0,0,.64-1.078,22.173,22.173,0,0,1,.892-2.418,3.707,3.707,0,0,1,.589-.741,8.839,8.839,0,0,1,2.23-2.232,14.334,14.334,0,0,1,1.458-.971,13.53,13.53,0,0,1,3.7-1.073,8.9,8.9,0,0,1,1.5-.038,2.7,2.7,0,0,1,2.038,1.226,1.481,1.481,0,0,1-.033,1.554,6.956,6.956,0,0,1-2.314,2.525,12.387,12.387,0,0,1-4.714,2.217,6.538,6.538,0,0,1-.945.1c-.854.054-1.047.242-1.019,1.073a5.592,5.592,0,0,0,.1.945c.125.632.426.956,1.06.933a4.984,4.984,0,0,0,1.858-.344,15.559,15.559,0,0,0,3.7-2.255c.568-.487,1.175-.927,1.784-1.368a22.177,22.177,0,0,0,3.18-3.251c1.412-1.559,2.877-3.07,4.309-4.612.614-.66,1.2-1.35,1.807-2.01.492-.533,1.019-1.019,1.506-1.565.93-1.019,1.832-2.069,2.762-3.088.55-.606,1.136-1.175,1.7-1.768,1.019-1.085,2.038-2.179,3.076-3.262.67-.706,1.356-1.4,2.026-2.1s1.322-1.422,1.987-2.13c.418-.443.813-.912,1.274-1.32a21.985,21.985,0,0,0,3.3-4.031c.6-.879,1.274-1.7,1.954-2.53.51-.634,1.057-1.241,1.585-1.863.578-.685.558-1.019-.138-1.593-1.241-1.019-2.467-2.056-3.753-3.017a9.772,9.772,0,0,0-2.023-1.1c-.871-.372-1.784-.632-2.681-.966a15.255,15.255,0,0,0-3.3-.843,2.694,2.694,0,0,1-.986-.426.622.622,0,0,1-.278-.492.678.678,0,0,1,.413-.459A4.2,4.2,0,0,1,200.5.053c.961.176,1.908.413,2.851.665a8,8,0,0,1,1.2.471c.848.375,1.712.726,2.533,1.157a26.933,26.933,0,0,1,2.678,1.59,18.227,18.227,0,0,1,3.129,2.489,1.878,1.878,0,0,0,.4.255c.51.311.622.311,1.078-.061s.8-.736,1.243-1.05A10.437,10.437,0,0,1,218.746,3.7a1.962,1.962,0,0,1,.856-.071c.609.11.719.3.813.92a2.5,2.5,0,0,1-.51,2.038c-.568.729-1.019,1.552-1.529,2.326-.161.24-.369.446-.55.675a6.022,6.022,0,0,0-.4.545.622.622,0,0,0,.14.851c.51.494.971,1.019,1.452,1.529.232.255.471.484.688.741a19.941,19.941,0,0,1,3.514,5.787,6.726,6.726,0,0,1,.255,3.1,5.07,5.07,0,0,1-1.486,2.9,12.952,12.952,0,0,1-1.761,1.58,4.449,4.449,0,0,1-1.177.51,12.948,12.948,0,0,1-5.022,1.078,18.428,18.428,0,0,1-4.118-.474c-1.019-.275-2.092-.4-3.142-.589-.935-.171-1.873-.324-2.8-.51a4.569,4.569,0,0,0-2.352.206,2.293,2.293,0,0,0-1.356,1.356,7.025,7.025,0,0,0-.339,4.077,6.261,6.261,0,0,0,2.038,3.6,9.774,9.774,0,0,0,2.168,1.376,13.3,13.3,0,0,0,7.056.989c.408-.031.81-.143,1.215-.15a3.506,3.506,0,0,0,1.891-.849,1.2,1.2,0,0,0,.461-.645,2.961,2.961,0,0,0-.859-2.951c-.288-.285-.527-.619-.823-.9-.377-.354-.815-.647-1.175-1.019a4.629,4.629,0,0,1-.683-.991.283.283,0,0,1,.255-.436,2.364,2.364,0,0,1,.989.132,4.505,4.505,0,0,1,1.108.764,10.807,10.807,0,0,1,2.179,2.331,6.99,6.99,0,0,1,.764,1.733,2.919,2.919,0,0,1-1.511,3.328A9.074,9.074,0,0,1,209.795,39.82Zm4.179-12.98a13.589,13.589,0,0,0,2.563-.4,11.8,11.8,0,0,0,3.241-1.386,4.112,4.112,0,0,0,2.038-3.18,4.842,4.842,0,0,0-.308-2.461,26.679,26.679,0,0,0-1.231-2.8,25.779,25.779,0,0,0-3.677-4.518.6.6,0,0,0-.953-.066c-.476.418-.912.882-1.386,1.3-.882.78-1.763,1.562-2.681,2.293-.79.634-1.669,1.167-2.441,1.822-.721.612-1.356,1.325-2.038,2-.349.349-.693.7-1.045,1.047-.438.428-.887.841-1.317,1.274-.78.78-1.557,1.565-2.319,2.365a3.036,3.036,0,0,0-.357.606,2.954,2.954,0,0,0,.591.229c.9.138,1.8.234,2.693.38.647.107,1.274.28,1.929.395,1.45.255,2.9.51,4.35.736.782.148,1.567.252,2.347.369ZM155.682,37.229l.1.308a1.232,1.232,0,0,0,.242-.084,1.891,1.891,0,0,0,.561-.372c.963-1.256,2.14-2.331,3.058-3.636.685-.984,1.46-1.906,2.143-2.892.51-.726.93-1.506,1.363-2.275.127-.227.255-.51-.051-.736s-.459.051-.668.163a.583.583,0,0,0-.11.082,29.182,29.182,0,0,0-2.668,2.887,44.083,44.083,0,0,0-3.713,5.919A4.225,4.225,0,0,0,155.682,37.229Zm18.231-9.367c-.048-.1-.082-.278-.186-.357s-.255,0-.367.043a1.909,1.909,0,0,0-.438.313c-.232.217-.456.443-.67.678-.711.782-1.486,1.529-2.107,2.367-.953,1.294-1.829,2.647-2.673,4.016a22.044,22.044,0,0,0-1.126,2.314c-.041.084,0,.206,0,.311a1.031,1.031,0,0,0,.362-.054,4.259,4.259,0,0,0,.642-.606q2.038-2.454,4.077-4.928c.227-.278.341-.647.578-.91a15.043,15.043,0,0,0,1.743-2.749,3.135,3.135,0,0,0,.166-.438ZM146.221,37.8c0-.51-.143-.711-.527-.66a3.144,3.144,0,0,0-1.019.334,12.292,12.292,0,0,0-3.269,2.612,15.415,15.415,0,0,0-1.35,1.784.721.721,0,0,0-.031.561c.087.24.326.191.53.132s.395-.107.583-.181a9.532,9.532,0,0,0,2.706-1.529,11.556,11.556,0,0,0,2.087-2.377,3.029,3.029,0,0,0,.278-.688Zm27.988,4.841c.642-.293,1.287-.563,1.908-.879a7.272,7.272,0,0,0,2.179-1.7,5.755,5.755,0,0,0,1.417-2.11.956.956,0,0,0,.031-.632.61.61,0,0,0-.736-.178,3.443,3.443,0,0,0-.762.326c-.255.148-.469.359-.721.51a12.363,12.363,0,0,0-3.822,3.733.764.764,0,0,0-.14.606c.1.153.382.2.634.326Zm35.566-27.993a7.614,7.614,0,0,0,1.19-.7c1.114-.966,2.194-1.97,3.279-2.966a1.654,1.654,0,0,0,.326-.433c.189-.349.082-.619-.326-.917-.359-.255-.54-.275-.833.02-.634.645-1.274,1.3-1.868,1.97q-.764.831-1.44,1.717a3.313,3.313,0,0,0-.433.838C209.629,14.276,209.721,14.439,209.775,14.648Zm8.434-8.37c0-.268-.125-.38-.347-.339a.764.764,0,0,0-.3.148q-.935.726-1.86,1.468a1.593,1.593,0,0,0-.329.352.67.67,0,0,0,.043.871.647.647,0,0,0,.861-.1c.6-.675,1.172-1.371,1.751-2.064a1.821,1.821,0,0,0,.181-.334Z" transform="translate(-78.107 -0.009)" fill="#272623"/>
      <path id="Path_930" data-name="Path 930" d="M8.967,120.3a11.142,11.142,0,0,1-5.443-1.085,6.423,6.423,0,0,1-2.943-2.548,4.711,4.711,0,0,1-.122-4.281,7.053,7.053,0,0,1,2.77-3.1A17.821,17.821,0,0,1,6.8,107.644a14.486,14.486,0,0,1,5.155-.785,7.539,7.539,0,0,1,1.812.311,3.35,3.35,0,0,1,1.628,1.274,6.057,6.057,0,0,1,.622.889,1.753,1.753,0,0,1,.043.64,3.313,3.313,0,0,1-.568.028c-.494-.061-.986-.14-1.475-.227-.4-.071-.79-.183-1.19-.255a7.389,7.389,0,0,0-2.971.1,25.753,25.753,0,0,0-2.5.614,7.328,7.328,0,0,0-2.8,1.855,7.932,7.932,0,0,0-1.134,1.6,3.188,3.188,0,0,0-.2,2.709,3.024,3.024,0,0,0,1.18,1.343,7.066,7.066,0,0,0,4.762.994A10.873,10.873,0,0,0,12,118.091a10.505,10.505,0,0,0,1.85-.968,13.665,13.665,0,0,0,2.816-2.349,15.252,15.252,0,0,0,2.472-3.312c.255-.51.586-1.019.874-1.529a37.741,37.741,0,0,0,3-6.75c.367-1.121.736-2.242,1.119-3.356q1.187-3.476,2.4-6.941a3.7,3.7,0,0,0,.255-.558.9.9,0,0,0-.071-.614c-.076-.1-.357-.082-.545-.079a.652.652,0,0,0-.316.12,36.537,36.537,0,0,0-4.913,3.384,15.549,15.549,0,0,0-3.081,3.6,7.841,7.841,0,0,0-.989,6.087c.28,1.07.127,1.287-.968,1.175a7.643,7.643,0,0,1-1.274-.255,2.38,2.38,0,0,1-1.6-1.72,5.653,5.653,0,0,1,.984-5.336,18.856,18.856,0,0,1,5.351-4.869c.976-.617,1.952-1.238,2.948-1.822.566-.331,1.167-.606,1.763-.884,1.233-.573,2.479-1.121,3.707-1.707a3.213,3.213,0,0,0,1.019-.67,2.494,2.494,0,0,1,2.138-.645,6.287,6.287,0,0,1,1.529.331c.609.181.7.436.42,1.019a1.333,1.333,0,0,1-.13.237,17,17,0,0,0-1.8,3.567c-1.172,2.686-2.038,5.478-3,8.243a34.928,34.928,0,0,1-1.529,3.641q-1.2,2.553-2.571,5.027c-.423.764-1,1.455-1.5,2.189a21.236,21.236,0,0,1-3.312,3.682,18.111,18.111,0,0,1-5.083,3.2A13.508,13.508,0,0,1,8.967,120.3Z" transform="translate(-0.003 -65.639)" fill="#272623"/>
      <path id="Path_931" data-name="Path 931" d="M291.077,199.991l-.321-2.069c-.013-.089-.056-.194-.025-.255a.853.853,0,0,1,.27-.408c.066-.038.293.089.372.2a3.957,3.957,0,0,1,.719,2.094,9.622,9.622,0,0,0,.1,1.019,1.749,1.749,0,0,0,.255.459,1.825,1.825,0,0,0,.273-.395,4.964,4.964,0,0,1,4.586-3.035,1.187,1.187,0,0,1,.991.51.65.65,0,0,1-.066.869.51.51,0,0,1-.79-.036,1.081,1.081,0,0,0-1.483-.11,7.992,7.992,0,0,0-1.129.764A2.553,2.553,0,0,0,294,202.3a1.085,1.085,0,0,0,.489.612,2.828,2.828,0,0,0,2.92.1,1.619,1.619,0,0,0,.469-.382c.178-.217.319-.51.13-.747a.917.917,0,0,0-.6-.2c-.336-.033-.678,0-1.019-.023-.107,0-.2-.155-.3-.24.089-.087.168-.224.275-.255a8.243,8.243,0,0,1,1-.163c.29-.031.589-.018.882-.046.66-.064,1.06.27,1.032.925a2,2,0,0,1-1.088,1.842,4.256,4.256,0,0,1-1.529.489,8.867,8.867,0,0,1-2.232-.143,2.224,2.224,0,0,1-1.7-1.5,1.718,1.718,0,0,0-.255-.369c-.132.107-.308.186-.385.324-.183.336-.285.719-.482,1.047-.349.578-.747.655-1.21.168-.7-.736-1.338-1.529-2-2.311a.328.328,0,0,1-.036-.059c-.16-.255-.354-.543-.683-.464-.382.094-.344.484-.375.795-.041.451-.066.9-.115,1.356-.028.273-.064.581-.41.622s-.474-.209-.617-.454a2.555,2.555,0,0,1-.183-1.73,23.845,23.845,0,0,1,.619-2.535,1.158,1.158,0,0,1,.194-.357c.283-.387.456-.367.805-.051a31.283,31.283,0,0,1,2.143,2.711c.12.135.224.285.357.408.367.341.749.232.826-.255A13.283,13.283,0,0,0,291,200Z" transform="translate(-213.062 -146.994)" fill="#272623"/>
      <path id="Path_932" data-name="Path 932" d="M193.239,201.049c-.158-1.139.606-1.812,1.45-2.436.436-.324.859-.662,1.312-.958a2.258,2.258,0,0,1,2.27-.14,3,3,0,0,1,1.223,1.139,3.972,3.972,0,0,1,.65,1.761,3.435,3.435,0,0,1-2.337,3.641,4.191,4.191,0,0,1-4.092-1.21A2.4,2.4,0,0,1,193.239,201.049Zm5.626-.171a1.934,1.934,0,0,0-.706-1.858,1.382,1.382,0,0,0-1.577-.214,3.5,3.5,0,0,1-1.307.68c-.125.023-.232.2-.326.321a2.1,2.1,0,0,0-.211,1.753,2.125,2.125,0,0,0,3.129,1.468A2,2,0,0,0,198.865,200.878Z" transform="translate(-143.986 -147.01)" fill="#272623"/>
      <path id="Path_933" data-name="Path 933" d="M224.346,201.84c.089-.764.15-1.384.242-2.01a1.6,1.6,0,0,1,.227-.489c.3-.54.2-.8-.385-1.019a14.706,14.706,0,0,1-1.554-.668.892.892,0,0,1-.089-1.529.533.533,0,0,1,.884.2,1.187,1.187,0,0,0,.961.764,2.252,2.252,0,0,0,2.1-.354,3.154,3.154,0,0,1,2.76-.629,1.084,1.084,0,0,1,.922.861,1.307,1.307,0,0,1-.764,1.042,12.182,12.182,0,0,1-1.985.441,1.554,1.554,0,0,0-1.483,1.172,10.891,10.891,0,0,0-.545,2.994,1.244,1.244,0,0,1-.092.589.655.655,0,0,1-.51.255.6.6,0,0,1-.451-.344A12.206,12.206,0,0,1,224.346,201.84Z" transform="translate(-165.729 -146.039)" fill="#272623"/>
      <path id="Path_934" data-name="Path 934" d="M256.5,200.295c0,.293-.013.589,0,.884.028.54.255.785.8.808,1.572.069,1.743-.074,1.562-1.529a5.487,5.487,0,0,1-.125-1.019,1.373,1.373,0,0,1,.278-.79.535.535,0,0,1,.945.324c.1.854.173,1.71.237,2.568.056.764.089,1.529.127,2.293a2.94,2.94,0,0,1,0,.474c-.033.3-.071.6-.451.668a.691.691,0,0,1-.7-.53,5.2,5.2,0,0,1-.122-.871c-.061-.683-.071-.688-.721-.67-.293,0-.586-.028-.879-.036-.6-.018-.879.242-.9.838a4.788,4.788,0,0,1-.031.744.463.463,0,0,1-.813.283,1.442,1.442,0,0,1-.369-.831,20.312,20.312,0,0,1,.107-4.4.835.835,0,0,1,.731-.675c.306.025.359.255.369.487.015.316,0,.634,0,.953Z" transform="translate(-190.217 -147.891)" fill="#272623"/>
      <path id="Path_935" data-name="Path 935" d="M152.692,205.069a7.924,7.924,0,0,1-1.353-.1,2.485,2.485,0,0,1-1.893-3.348,4.395,4.395,0,0,1,5.226-3.058,1.531,1.531,0,0,1,.255.079c.278.107.51.319.431.6-.033.133-.359.255-.561.255-.51.043-1.047-.033-1.554.048a3.149,3.149,0,0,0-2.632,3.172,1.12,1.12,0,0,0,.848,1.035,4.375,4.375,0,0,0,2.8.138,5.948,5.948,0,0,1,.93-.2c.405-.033.563.224.321.553a1.33,1.33,0,0,1-.678.51c-.7.168-1.422.255-2.135.367Z" transform="translate(-111.269 -147.899)" fill="#272623"/>
      <path id="Path_936" data-name="Path 936" d="M342.963,204.256a1.317,1.317,0,0,1-1.1-.433.864.864,0,0,1-.163-1.063,1.229,1.229,0,0,1,1.047-.64c.283.041.387.194.288.482-.082.255-.3.51.031.726.29.186.555.048.813-.13s.51-.344.441-.7a.8.8,0,0,0-.66-.7,2.972,2.972,0,0,1-1.483-1,1.137,1.137,0,0,1-.183-1.322,3.811,3.811,0,0,1,2.074-1.947,1.1,1.1,0,0,1,1.246.3.884.884,0,0,1,.194,1.121c-.331.673-.65,1.363-1.567,1.409-.275,0-.331.255-.173.443a2.27,2.27,0,0,0,.527.41c.206.135.446.224.642.369a1.1,1.1,0,0,1,0,1.9A2.851,2.851,0,0,1,342.963,204.256Zm1.72-5.555c-.227-.1-.387-.255-.538-.237a1.633,1.633,0,0,0-1.124,1.378.51.51,0,0,0,.255.359c.1.038.293-.056.387-.148a6.879,6.879,0,0,0,.6-.7c.138-.173.245-.367.428-.65Z" transform="translate(-254.547 -147.133)" fill="#272623"/>
      <path id="Path_937" data-name="Path 937" d="M177.591,204.563a7.364,7.364,0,0,1-1.091-.3,1.039,1.039,0,0,1-.675-1.315,2.233,2.233,0,0,0,.061-.4c-.059-1.457.688-2.7,1.06-4.044a2.117,2.117,0,0,1,.178-.367c.1-.2.189-.482.471-.377s.311.385.255.688q-.349,1.972-.655,3.952c-.1.657.189.917.864.838a9.433,9.433,0,0,1,1.274-.12c.4,0,.51.27.255.594a1.049,1.049,0,0,1-.4.357C178.651,204.254,178.11,204.4,177.591,204.563Z" transform="translate(-131.003 -147.351)" fill="#272623"/>
      <path id="Path_938" data-name="Path 938" d="M279.291,202.5c-.074.691-.135,1.435-.242,2.174-.079.538-.354.833-.67.81s-.51-.283-.609-.8a11.276,11.276,0,0,1,.4-4.969c.061-.242.191-.474.51-.461a.51.51,0,0,1,.5.548C279.23,200.663,279.256,201.544,279.291,202.5Z" transform="translate(-206.892 -148.481)" fill="#272623"/>
    </g>
  </g>
</svg>
