<svg xmlns="http://www.w3.org/2000/svg" xmlns:xlink="http://www.w3.org/1999/xlink" width="728.806" height="117.642" viewBox="0 0 728.806 117.642">
  <defs>
    <clipPath id="clip-path">
      <rect id="Rectangle_401" data-name="Rectangle 401" width="728.806" height="117.642" transform="translate(505 1456)" fill="#fff"/>
    </clipPath>
  </defs>
  <g id="Mask_Group_2" data-name="Mask Group 2" transform="translate(-505 -1456)" clip-path="url(#clip-path)">
    <g id="pat" transform="translate(531.708 1488.464)">
      <g id="Layer_1" data-name="Layer 1" transform="translate(0 0)">
        <path id="Path_1027" data-name="Path 1027" d="M413.057,91c-3.133-1.86-6.743-3.231-9.325-5.678-9.313-8.836-18.357-18-27.352-27.144-2.448-2.533-4.442-3.671-7.526-.575-2.9,3-3.133,5.189,0,8.138,6.474,6.217,12.764,12.617,19.005,19.054.991,1.028,1.358,2.668,2.019,4.026a38.925,38.925,0,0,1-4.026.906c-5.6.685-9.95-1.04-14.11-5.275-21.27-21.686-42.833-43.065-64.359-64.543-5.752-5.752-5.764-5.752-11.724.2-21.49,21.49-43.114,42.833-64.347,64.567-4.43,4.528-9.142,5.58-14.808,5.018a14.576,14.576,0,0,1-3.255-1.15,11.186,11.186,0,0,1,1.493-3.1c4.381-4.54,8.885-8.983,13.352-13.462,2.019-2.019,3.941-4.136,6.119-6.033,2.925-2.643,3.561-4.9.428-8.126s-5.25-2.337-7.979.453c-8.983,9.191-18.357,17.978-27.119,27.388-4.528,4.9-9.79,4.173-15.2,3.806-.526,0-1.224-1.86-1.224-2.9,0-.563.942-1.224,1.517-1.811,14.282-14.269,28.612-28.49,42.833-42.833,2.643-2.68,4.589-2.607,7.049.1,2.741,3.011,5.838,5.691,8.567,8.664s4.9,1.53,7.122-.71,3.059-4.087.416-6.645c-5.617-5.409-11.185-10.855-16.521-16.423-2.729-2.864-4.638-2.093-7.061.367-8.42,8.567-16.986,17.047-25.492,25.553q-16.007,16.007-32.027,32c-1.3,1.3-2.57,3.4-4.051,3.573a130.373,130.373,0,0,1-13.462.355c1.823-2.448,3.341-5.3,5.507-7.477q34.07-34.266,68.337-68.361c4.9-4.9,4.993-4.9,10.011.073,7.049,7,14.257,13.915,21.1,21.257,3.268,3.463,5.483,3.671,8.885.11,10.06-10.4,20.4-20.547,30.717-30.7,4.969-4.9,5.066-4.822,10.084.159,10.292,10.182,20.658,20.3,30.778,30.595,3.109,3.182,5.226,3.512,8.444.122,7.135-7.563,14.759-14.686,21.943-22.187,3.109-3.255,5.226-3.965,8.848-.306,23.766,24.072,47.826,47.911,71.727,71.886a29.128,29.128,0,0,1,3,4.381,53.044,53.044,0,0,1-5.568,1.42c-5.005.82-8.787-1.334-12.348-4.981-18.614-18.883-37.448-37.534-56.221-56.294-4.822-4.81-4.9-4.81-9.582-.135-4.9,4.9-9.717,9.9-14.685,14.686-2.827,2.68-2.215,4.663.294,7.1s4.455,3.353,7.147.428,5.837-5.7,8.567-8.689c2.24-2.448,4.087-2.741,6.6-.22,14.343,14.5,28.82,28.857,43.2,43.322a13.825,13.825,0,0,1,1.921,3.537,35.911,35.911,0,0,1-3.843,1.224,15.811,15.811,0,0,1-3.047,0Z" transform="translate(34.019 -0.038)" fill="#fff"/>
        <path id="Path_1028" data-name="Path 1028" d="M336.415,84.449c-5.054.514-8.567-1.8-11.907-5.238-11.7-11.932-23.7-23.57-35.38-35.49-3.341-3.414-5.605-3.427-8.946,0-11.969,12.213-24.39,24-36.2,36.4-4.6,4.81-9.876,3.928-15.273,3.671-.4,0-1.224-2.019-.991-2.827.33-1.04,1.53-1.836,2.448-2.7,16.729-16.717,33.532-33.348,50.176-50.176,3.341-3.39,5.446-3.476,8.824,0,16.582,16.864,33.422,33.471,50.09,50.237a25.868,25.868,0,0,1,3.047,4.9Z" transform="translate(50.952 5.661)" fill="#fff"/>
        <path id="Path_1029" data-name="Path 1029" d="M298.78,78.5c-4.063.747-7.636-1.224-10.574-4.7-.906-1.089-1.995-2.019-3-3.035-6.119-6.033-6.327-6.266-12.14.159-4.785,5.287-9.864,8.995-17.378,7.551-1.15-.233-2.264-.612-3.39-.918a10.609,10.609,0,0,1,1.432-3.047c7.416-7.526,14.979-14.906,22.359-22.481,2.607-2.68,4.393-1.713,6.547.477,6.841,6.951,13.829,13.768,20.645,20.743A21.737,21.737,0,0,1,305.89,77.6c-1.542.294-3.084.624-4.626.881A22.233,22.233,0,0,1,298.78,78.5Z" transform="translate(56.463 11.232)" fill="#fff"/>
        <path id="Path_1030" data-name="Path 1030" d="M244.057,6.438a27.9,27.9,0,0,1,3.035,0c3.268.379,6.535.844,9.79,1.224-3.231,3.182-5.972,7.343-9.79,9.3-4.834,2.521-14.294-2.692-15.909-7.881-.184-.6,1.224-2.448,1.97-2.448,3.671-.269,7.282-.122,10.928-.122Z" transform="translate(51.733 1.385)" fill="#fff"/>
        <path id="Path_1031" data-name="Path 1031" d="M309.069,6.491c3.439,0,6.89-.073,10.329,0,2.79.073,3.892,1.224,1.836,3.671-9.264,11.565-16.741,8.689-24.476-1.04-.269-.33.808-2.448,1.334-2.545,3.671-.233,7.281-.122,10.928-.122Z" transform="translate(66.403 1.392)" fill="#fff"/>
        <path id="Path_1032" data-name="Path 1032" d="M557.443,83.345a27.717,27.717,0,0,1-5.005-3.047c-5.005-4.748-9.852-9.644-14.7-14.539-1.334-1.358-2.448-2.007-4.038-.306s-1.689,2.778,0,4.369c3.488,3.341,6.865,6.78,10.219,10.243a8.091,8.091,0,0,1,1.089,2.154,19.687,19.687,0,0,1-2.166.49,8.432,8.432,0,0,1-7.575-2.827C523.8,68.207,512.188,56.691,500.647,45.15c-3.1-3.1-3.1-3.084-6.29.11C482.8,56.8,471.19,68.268,459.785,79.943a8.921,8.921,0,0,1-7.967,2.692,7.34,7.34,0,0,1-1.738-.612,5.982,5.982,0,0,1,.8-1.664c2.35-2.448,4.773-4.822,7.171-7.233,1.089-1.077,2.117-2.215,3.267-3.243,1.567-1.407,1.909-2.631.233-4.369s-2.827-1.224-4.3.257c-4.8,4.883-9.876,9.656-14.588,14.673-2.448,2.619-5.25,2.24-8.163,2.044-.281,0-.636-1-.685-1.554,0-.306.5-.673.808-.979,7.673-7.673,15.383-15.31,23.007-23.02,1.42-1.432,2.448-1.4,3.782,0S464.558,60,466.05,61.6s2.595.82,3.818-.379,1.652-2.2.233-3.573c-3-2.9-5.96-5.825-8.823-8.836-1.456-1.542-2.448-1.126-3.794.2-4.516,4.614-9.117,9.154-13.694,13.719L426.583,79.857c-.7.7-1.383,1.823-2.166,1.921a71.642,71.642,0,0,1-7.257.2,34.713,34.713,0,0,1,2.949-4.026l36.714-36.714c2.656-2.656,2.692-2.643,5.385,0,3.806,3.782,7.673,7.5,11.357,11.418,1.75,1.86,2.949,1.946,4.773.061,5.409-5.593,11.014-11.014,16.5-16.5,2.668-2.631,2.729-2.594,5.422.073,5.531,5.483,11.1,10.916,16.533,16.472,1.664,1.7,2.815,1.885,4.54,0,3.831-4.063,7.93-7.869,11.785-11.92,1.677-1.75,2.815-2.129,4.748-.159,12.789,12.936,25.7,25.7,38.537,38.623a15.333,15.333,0,0,1,1.616,2.35,29.075,29.075,0,0,1-3,.759c-2.717.416-4.712-.71-6.645-2.668-10-10.145-20.119-20.168-30.2-30.228-2.582-2.582-2.607-2.582-5.14-.073s-5.226,5.311-7.918,7.881c-1.518,1.444-1.224,2.448.159,3.818s2.448,1.8,3.83.22,3.145-3.059,4.626-4.663c1.224-1.224,2.2-1.469,3.549-.11,7.722,7.771,15.505,15.481,23.252,23.252a7.426,7.426,0,0,1,1.028,1.9,18.223,18.223,0,0,1-2.056.661,8.148,8.148,0,0,1-1.64,0Z" transform="translate(93.357 7.622)" fill="#fff"/>
        <path id="Path_1033" data-name="Path 1033" d="M516.266,79.78c-2.717.281-4.589-.967-6.388-2.8-6.29-6.413-12.74-12.666-19.018-19.091-1.8-1.836-3.011-1.836-4.81,0-6.425,6.584-13.095,12.923-19.458,19.581-2.448,2.582-5.3,2.117-8.2,1.983-.22,0-.673-1.089-.538-1.518s.82-.991,1.224-1.456C468.073,67.493,477.1,58.56,486,49.553c1.8-1.823,2.925-1.86,4.748,0,8.909,9.056,17.953,17.99,26.923,27a13.344,13.344,0,0,1,1.64,2.594Z" transform="translate(102.459 10.733)" fill="#fff"/>
        <path id="Path_1034" data-name="Path 1034" d="M496.046,76.591c-2.178.4-4.1-.624-5.678-2.521-.49-.587-1.077-1.089-1.615-1.628-3.255-3.255-3.4-3.378-6.523.073-2.57,2.839-5.3,4.9-9.338,4.051a17.961,17.961,0,0,1-1.811-.49,5.545,5.545,0,0,1,.759-1.628c3.99-4.051,8.052-8.016,12.018-12.079,1.4-1.444,2.362-.93,3.512.257,3.671,3.671,7.428,7.343,11.088,11.137a11.024,11.024,0,0,1,1.407,2.35c-.832.159-1.652.33-2.448.465A10.918,10.918,0,0,1,496.046,76.591Z" transform="translate(105.425 13.715)" fill="#fff"/>
        <path id="Path_1035" data-name="Path 1035" d="M466.653,37.874a14.439,14.439,0,0,1,1.628,0c1.762.2,3.512.441,5.274.673-1.738,1.713-3.219,3.916-5.287,4.993C465.674,44.9,460.6,42.1,459.7,39.306c-.11-.318.648-1.224,1.052-1.322,1.946-.147,3.916,0,5.874,0Z" transform="translate(102.876 8.424)" fill="#fff"/>
        <path id="Path_1036" data-name="Path 1036" d="M501.57,37.9h5.544c1.505,0,2.093.624.991,1.995-4.981,6.217-8.995,4.675-13.131-.563-.135-.171.44-1.346.722-1.358,1.958-.122,3.916,0,5.874,0Z" transform="translate(110.767 8.435)" fill="#fff"/>
        <path id="Path_1037" data-name="Path 1037" d="M140.259,83.311a27.719,27.719,0,0,1-5.005-3.047c-5.005-4.748-9.79-9.68-14.686-14.588-1.334-1.358-2.448-2.007-4.039-.306s-1.689,2.778,0,4.369c3.476,3.341,6.853,6.78,10.206,10.243a8.089,8.089,0,0,1,1.089,2.154,19.078,19.078,0,0,1-2.166.49,8.432,8.432,0,0,1-7.575-2.827C106.617,68.173,95.015,56.657,83.463,45.117c-3.084-3.1-3.1-3.084-6.29.11C65.62,56.767,54.006,68.234,42.6,79.909A8.921,8.921,0,0,1,34.633,82.6,7.342,7.342,0,0,1,32.9,81.99a5.984,5.984,0,0,1,.8-1.664c2.362-2.448,4.773-4.822,7.171-7.233,1.089-1.077,2.129-2.215,3.268-3.243,1.579-1.407,1.909-2.631.233-4.369s-2.827-1.224-4.3.257c-4.822,4.9-9.864,9.656-14.563,14.686-2.448,2.619-5.25,2.24-8.163,2.044-.281,0-.636-1-.685-1.554,0-.306.5-.673.82-.979,7.661-7.673,15.371-15.31,23-23.02,1.42-1.432,2.448-1.4,3.782,0s3.145,3.059,4.638,4.663,2.607.82,3.83-.379,1.64-2.2.22-3.573c-2.986-2.9-5.948-5.825-8.824-8.836-1.456-1.542-2.448-1.126-3.782.2C35.808,53.6,31.207,58.138,26.63,62.7L9.423,79.97c-.685.7-1.383,1.823-2.166,1.921a71.647,71.647,0,0,1-7.257.2,33.434,33.434,0,0,1,2.962-4.026L39.675,41.348c2.656-2.656,2.68-2.643,5.372,0,3.806,3.782,7.685,7.5,11.357,11.418,1.75,1.946,2.949,1.946,4.785.1C66.6,47.271,72.2,41.849,77.7,36.367c2.668-2.631,2.717-2.594,5.409.073,5.519,5.483,11.124,10.928,16.521,16.472,1.677,1.7,2.815,1.885,4.54,0,3.83-4.063,7.93-7.869,11.785-11.92,1.677-1.75,2.815-2.129,4.761-.159,12.776,12.936,25.7,25.7,38.537,38.623a15.272,15.272,0,0,1,1.6,2.35,28.846,28.846,0,0,1-2.986.759c-2.729.416-4.724-.71-6.657-2.668-9.986-10.145-20.107-20.168-30.191-30.228-2.594-2.582-2.619-2.582-5.152-.073s-5.226,5.311-7.918,7.881c-1.517,1.444-1.224,2.448.159,3.818s2.448,1.8,3.83.22,3.145-3.059,4.638-4.663c1.224-1.224,2.191-1.469,3.537-.11,7.722,7.771,15.505,15.481,23.252,23.252a7.428,7.428,0,0,1,1.028,1.9,18.233,18.233,0,0,1-2.056.661,8.138,8.138,0,0,1-1.64,0Z" transform="translate(0 7.655)" fill="#fff"/>
        <path id="Path_1038" data-name="Path 1038" d="M99.085,79.783c-2.717.281-4.589-.967-6.388-2.8-6.339-6.425-12.74-12.678-19.018-19.1-1.787-1.836-3.011-1.836-4.81,0C62.444,64.461,55.775,70.8,49.423,77.457c-2.448,2.582-5.311,2.117-8.212,1.983-.22,0-.673-1.089-.526-1.517a6.96,6.96,0,0,1,1.224-1.456c8.983-8.983,18.014-17.916,26.923-26.923,1.8-1.823,2.925-1.86,4.748,0,8.909,9.056,17.953,17.99,26.923,27a13.89,13.89,0,0,1,1.628,2.594Z" transform="translate(9.099 10.731)" fill="#fff"/>
        <path id="Path_1039" data-name="Path 1039" d="M78.865,76.591c-2.178.4-4.1-.624-5.678-2.521-.49-.587-1.077-1.089-1.615-1.628-3.255-3.255-3.39-3.378-6.523.073-2.57,2.839-5.3,4.9-9.338,4.051a17.946,17.946,0,0,1-1.811-.49,5.543,5.543,0,0,1,.759-1.628c3.99-4.051,8.053-8.016,12.018-12.079,1.4-1.444,2.362-.93,3.525.257,3.671,3.671,7.416,7.343,11.088,11.137a11.458,11.458,0,0,1,1.4,2.35c-.832.159-1.652.33-2.448.465a10.918,10.918,0,0,1-1.371.012Z" transform="translate(12.062 13.715)" fill="#fff"/>
        <path id="Path_1040" data-name="Path 1040" d="M49.473,37.874a14.437,14.437,0,0,1,1.628,0c1.762.2,3.512.441,5.275.673-1.738,1.713-3.219,3.916-5.287,4.993-2.594,1.358-7.673-1.444-8.567-4.234-.1-.318.649-1.224,1.065-1.322,1.946-.147,3.9,0,5.862,0Z" transform="translate(9.514 8.424)" fill="#fff"/>
        <path id="Path_1041" data-name="Path 1041" d="M84.39,37.9h5.544c1.505,0,2.093.624.991,1.995-4.981,6.217-8.995,4.675-13.131-.563-.135-.171.441-1.346.722-1.358,1.958-.122,3.916,0,5.874,0Z" transform="translate(17.405 8.435)" fill="#fff"/>
      </g>
    </g>
  </g>
</svg>
