<svg xmlns="http://www.w3.org/2000/svg" xmlns:xlink="http://www.w3.org/1999/xlink" width="254" height="41" viewBox="0 0 254 41">
  <defs>
    <clipPath id="clip-path">
      <rect id="Rectangle_382" data-name="Rectangle 382" width="254" height="41" transform="translate(505 1456)" fill="#fff"/>
    </clipPath>
  </defs>
  <g id="Mask_Group_1" data-name="Mask Group 1" transform="translate(-505 -1456)" clip-path="url(#clip-path)">
    <g id="pat" transform="translate(514.308 1467.276)">
      <g id="Layer_1" data-name="Layer 1" transform="translate(0 0.038)">
        <path id="Path_993" data-name="Path 993" d="M242.989,31.742a17.62,17.62,0,0,1-3.25-1.979c-3.246-3.079-6.4-6.274-9.533-9.46-.853-.883-1.548-1.28-2.623-.2-1.011,1.045-1.092,1.808,0,2.836,2.256,2.167,4.448,4.4,6.624,6.641a5.34,5.34,0,0,1,.7,1.4,13.565,13.565,0,0,1-1.4.316,5.488,5.488,0,0,1-4.918-1.838c-7.413-7.558-14.928-15.009-22.43-22.494-2-2-2.009-2-4.086.068-7.49,7.49-15.026,14.928-22.426,22.5a5.781,5.781,0,0,1-5.161,1.749,5.08,5.08,0,0,1-1.135-.4,3.9,3.9,0,0,1,.52-1.079c1.527-1.582,3.1-3.131,4.653-4.692.7-.7,1.373-1.442,2.133-2.1,1.019-.921,1.241-1.706.149-2.832s-1.83-.815-2.781.158c-3.131,3.2-6.4,6.265-9.451,9.545-1.578,1.706-3.412,1.454-5.3,1.326-.183,0-.427-.648-.427-1.011,0-.2.328-.427.529-.631,4.977-4.973,9.972-9.929,14.928-14.928.921-.934,1.6-.908,2.457.034.955,1.049,2.034,1.983,2.986,3.02s1.706.533,2.482-.247,1.066-1.425.145-2.316c-1.958-1.885-3.9-3.783-5.758-5.724-.951-1-1.616-.729-2.461.128-2.934,2.986-5.92,5.941-8.884,8.906q-5.579,5.579-11.162,11.153c-.452.452-.9,1.186-1.412,1.245a45.437,45.437,0,0,1-4.692.124,23.03,23.03,0,0,1,1.919-2.606Q165.8,16.413,177.746,4.53c1.706-1.706,1.74-1.706,3.489.026,2.457,2.44,4.969,4.849,7.353,7.408,1.139,1.207,1.911,1.28,3.1.038,3.506-3.625,7.11-7.161,10.705-10.7,1.732-1.706,1.766-1.68,3.514.055,3.587,3.549,7.2,7.076,10.727,10.663,1.083,1.109,1.821,1.224,2.943.043,2.487-2.636,5.144-5.118,7.647-7.733,1.083-1.135,1.821-1.382,3.084-.107,8.283,8.389,16.668,16.7,25,25.053a10.152,10.152,0,0,1,1.045,1.527,18.487,18.487,0,0,1-1.941.495,4.7,4.7,0,0,1-4.3-1.736c-6.487-6.581-13.051-13.081-19.594-19.619-1.68-1.676-1.706-1.676-3.34-.047-1.706,1.706-3.386,3.45-5.118,5.118-.985.934-.772,1.625.1,2.474s1.553,1.169,2.491.149,2.034-1.988,2.986-3.028c.781-.853,1.425-.955,2.3-.077,5,5.054,10.044,10.057,15.056,15.1a4.819,4.819,0,0,1,.67,1.233,12.517,12.517,0,0,1-1.339.427,5.511,5.511,0,0,1-1.062,0Z" transform="translate(-87.176 -0.038)" fill="#fff"/>
        <path id="Path_994" data-name="Path 994" d="M265.574,46.049a4.845,4.845,0,0,1-4.15-1.825c-4.077-4.158-8.262-8.215-12.33-12.369-1.164-1.19-1.953-1.194-3.118,0-4.171,4.257-8.5,8.364-12.616,12.684-1.6,1.676-3.442,1.369-5.323,1.28-.141,0-.427-.7-.345-.985.115-.363.533-.64.853-.943,5.83-5.826,11.686-11.622,17.487-17.487,1.164-1.181,1.9-1.211,3.075,0,5.779,5.877,11.648,11.665,17.457,17.508a9.015,9.015,0,0,1,1.062,1.706Z" transform="translate(-130.57 -14.644)" fill="#fff"/>
        <path id="Path_995" data-name="Path 995" d="M268.5,60.193a3.88,3.88,0,0,1-3.685-1.638c-.316-.38-.7-.7-1.045-1.058-2.133-2.1-2.205-2.184-4.231.055-1.668,1.843-3.438,3.135-6.056,2.632-.4-.081-.789-.213-1.181-.32a3.7,3.7,0,0,1,.5-1.062c2.585-2.623,5.22-5.195,7.792-7.835.909-.934,1.531-.6,2.282.166,2.384,2.423,4.82,4.8,7.2,7.229a7.575,7.575,0,0,1,.908,1.518c-.537.1-1.075.218-1.612.307A7.749,7.749,0,0,1,268.5,60.193Z" transform="translate(-144.691 -28.92)" fill="#fff"/>
        <path id="Path_996" data-name="Path 996" d="M235.659,6.411a9.724,9.724,0,0,1,1.058,0c1.139.132,2.278.294,3.412.427C239,7.946,238.048,9.4,236.717,10.079c-1.685.879-4.982-.938-5.545-2.747-.064-.209.427-.853.687-.853,1.28-.094,2.538-.043,3.809-.043Z" transform="translate(-132.572 -3.685)" fill="#fff"/>
        <path id="Path_997" data-name="Path 997" d="M301.021,6.451c1.2,0,2.4-.026,3.6,0,.972.026,1.356.427.64,1.28-3.229,4.031-5.835,3.028-8.53-.363-.094-.115.281-.853.465-.887,1.279-.081,2.538-.043,3.809-.043Z" transform="translate(-170.163 -3.703)" fill="#fff"/>
        <path id="Path_998" data-name="Path 998" d="M466.051,51.371a9.659,9.659,0,0,1-1.744-1.062c-1.744-1.655-3.433-3.361-5.122-5.067-.465-.473-.853-.7-1.407-.107s-.589.968,0,1.523c1.216,1.164,2.393,2.363,3.561,3.57a2.819,2.819,0,0,1,.38.751,6.859,6.859,0,0,1-.755.171,2.939,2.939,0,0,1-2.64-.985c-4-4.069-8.044-8.082-12.066-12.1-1.079-1.079-1.079-1.075-2.192.038-4.026,4.022-8.074,8.018-12.049,12.087a3.109,3.109,0,0,1-2.777.938,2.559,2.559,0,0,1-.606-.213,2.086,2.086,0,0,1,.277-.58c.819-.853,1.663-1.68,2.5-2.521.38-.375.738-.772,1.139-1.13.546-.49.665-.917.081-1.523s-.985-.427-1.5.09c-1.672,1.7-3.442,3.365-5.084,5.114-.853.913-1.83.781-2.845.712-.1,0-.222-.35-.239-.542,0-.107.175-.235.281-.341,2.674-2.674,5.361-5.336,8.018-8.023.495-.5.853-.486,1.318,0s1.1,1.066,1.616,1.625.9.286,1.331-.132.576-.768.081-1.245c-1.045-1.011-2.077-2.03-3.075-3.079-.508-.537-.853-.392-1.322.068-1.574,1.608-3.177,3.19-4.773,4.781l-6,5.971c-.243.243-.482.636-.755.67a24.97,24.97,0,0,1-2.529.068,12.1,12.1,0,0,1,1.028-1.4l12.8-12.8c.926-.926.938-.921,1.877,0,1.326,1.318,2.674,2.615,3.958,3.979.61.648,1.028.678,1.663.021,1.885-1.949,3.839-3.839,5.749-5.749.93-.917.951-.9,1.889.026,1.928,1.911,3.868,3.8,5.762,5.741.58.593.981.657,1.582,0,1.335-1.416,2.764-2.742,4.107-4.154.584-.61.981-.742,1.655-.055,4.457,4.508,8.957,8.957,13.431,13.461a5.342,5.342,0,0,1,.563.819,10.13,10.13,0,0,1-1.045.264,2.55,2.55,0,0,1-2.316-.93c-3.485-3.536-7.012-7.029-10.526-10.535-.9-.9-.908-.9-1.791-.026s-1.821,1.851-2.76,2.747c-.529.5-.427.853.055,1.331s.853.627,1.335.077,1.1-1.066,1.612-1.625c.427-.427.768-.512,1.237-.038,2.691,2.708,5.4,5.4,8.1,8.1a2.587,2.587,0,0,1,.358.661,6.351,6.351,0,0,1-.717.23,2.84,2.84,0,0,1-.571,0Z" transform="translate(-239.237 -19.668)" fill="#fff"/>
        <path id="Path_999" data-name="Path 999" d="M478.2,59.187a2.6,2.6,0,0,1-2.226-.977c-2.192-2.235-4.44-4.414-6.628-6.654-.627-.64-1.049-.64-1.676,0-2.239,2.295-4.564,4.5-6.781,6.824-.853.9-1.847.738-2.858.691-.077,0-.235-.38-.188-.529s.286-.345.427-.508c3.135-3.131,6.282-6.244,9.383-9.383.627-.635,1.019-.648,1.655,0,3.1,3.156,6.257,6.27,9.383,9.409a4.648,4.648,0,0,1,.572.9Z" transform="translate(-262.561 -27.642)" fill="#fff"/>
        <path id="Path_1000" data-name="Path 1000" d="M479.781,66.754a2.061,2.061,0,0,1-1.979-.879c-.171-.2-.375-.38-.563-.567-1.135-1.135-1.186-1.177-2.273.026-.9.99-1.847,1.706-3.254,1.412a6.258,6.258,0,0,1-.631-.171,1.933,1.933,0,0,1,.264-.567c1.39-1.412,2.806-2.794,4.188-4.21.486-.5.823-.324,1.224.09,1.28,1.28,2.589,2.559,3.864,3.881a3.84,3.84,0,0,1,.491.819c-.29.055-.576.115-.853.162A3.806,3.806,0,0,1,479.781,66.754Z" transform="translate(-270.159 -35.281)" fill="#fff"/>
        <path id="Path_1001" data-name="Path 1001" d="M462.117,37.859a5.033,5.033,0,0,1,.567,0c.614.068,1.224.154,1.838.235a8.95,8.95,0,0,1-1.843,1.74c-.9.473-2.674-.5-2.986-1.476-.038-.111.226-.427.367-.461.678-.051,1.365,0,2.047,0Z" transform="translate(-263.628 -21.724)" fill="#fff"/>
        <path id="Path_1002" data-name="Path 1002" d="M497.259,37.9h1.932c.525,0,.729.218.345.7-1.736,2.167-3.135,1.629-4.576-.2-.047-.06.154-.469.252-.473.682-.043,1.365,0,2.047,0Z" transform="translate(-283.851 -21.752)" fill="#fff"/>
        <path id="Path_1003" data-name="Path 1003" d="M48.882,51.457a9.66,9.66,0,0,1-1.744-1.062c-1.744-1.655-3.412-3.374-5.118-5.084-.465-.473-.853-.7-1.407-.107s-.589.968,0,1.523C41.824,47.891,43,49.09,44.169,50.3a2.819,2.819,0,0,1,.38.751,6.649,6.649,0,0,1-.755.171,2.939,2.939,0,0,1-2.64-.985c-4-4.052-8.04-8.065-12.066-12.087-1.075-1.079-1.079-1.075-2.192.038C22.87,42.206,18.822,46.2,14.847,50.271a3.109,3.109,0,0,1-2.777.938A2.559,2.559,0,0,1,11.465,51a2.086,2.086,0,0,1,.277-.58c.823-.853,1.663-1.68,2.5-2.521.38-.375.742-.772,1.139-1.13.55-.49.665-.917.081-1.523s-.985-.427-1.5.09c-1.68,1.706-3.438,3.365-5.075,5.118-.853.913-1.83.781-2.845.712-.1,0-.222-.35-.239-.542,0-.107.175-.235.286-.341,2.67-2.674,5.357-5.336,8.014-8.023.495-.5.853-.486,1.318,0s1.1,1.066,1.616,1.625.908.286,1.335-.132.572-.768.077-1.245c-1.041-1.011-2.073-2.03-3.075-3.079-.508-.537-.853-.392-1.318.068-1.578,1.608-3.182,3.19-4.777,4.781l-6,6.018c-.239.243-.482.636-.755.67A24.97,24.97,0,0,1,0,51.03a11.652,11.652,0,0,1,1.032-1.4l12.8-12.8c.926-.926.934-.921,1.872,0,1.326,1.318,2.678,2.615,3.958,3.979.61.678,1.028.678,1.668.034,1.885-1.949,3.839-3.839,5.754-5.749.93-.917.947-.9,1.885.026,1.924,1.911,3.877,3.809,5.758,5.741.584.593.981.657,1.582,0,1.335-1.416,2.764-2.742,4.107-4.154.584-.61.981-.742,1.659-.055,4.453,4.508,8.957,8.957,13.431,13.461a5.322,5.322,0,0,1,.559.819,10.054,10.054,0,0,1-1.041.264,2.553,2.553,0,0,1-2.32-.93c-3.48-3.536-7.008-7.029-10.522-10.535-.9-.9-.913-.9-1.8-.026s-1.821,1.851-2.76,2.747c-.529.5-.427.853.055,1.331s.853.627,1.335.077,1.1-1.066,1.616-1.625c.427-.427.763-.512,1.233-.038,2.691,2.708,5.4,5.4,8.1,8.1a2.589,2.589,0,0,1,.358.661,6.354,6.354,0,0,1-.717.23,2.836,2.836,0,0,1-.572,0Z" transform="translate(0 -19.754)" fill="#fff"/>
        <path id="Path_1004" data-name="Path 1004" d="M61.02,59.182a2.6,2.6,0,0,1-2.226-.977c-2.209-2.239-4.44-4.419-6.628-6.658-.623-.64-1.049-.64-1.676,0-2.239,2.295-4.564,4.5-6.777,6.824-.853.9-1.851.738-2.862.691-.077,0-.235-.38-.183-.529a2.426,2.426,0,0,1,.427-.508c3.131-3.131,6.278-6.244,9.383-9.383.627-.635,1.019-.648,1.655,0,3.1,3.156,6.257,6.27,9.383,9.409a4.841,4.841,0,0,1,.567.9Z" transform="translate(-23.316 -27.636)" fill="#fff"/>
        <path id="Path_1005" data-name="Path 1005" d="M62.6,66.754a2.061,2.061,0,0,1-1.979-.879c-.171-.2-.375-.38-.563-.567-1.135-1.135-1.181-1.177-2.273.026-.9.99-1.847,1.706-3.254,1.412a6.254,6.254,0,0,1-.631-.171,1.932,1.932,0,0,1,.264-.567c1.39-1.412,2.806-2.794,4.188-4.21.486-.5.823-.324,1.228.09,1.28,1.28,2.585,2.559,3.864,3.881a3.993,3.993,0,0,1,.486.819c-.29.055-.576.115-.853.162a3.8,3.8,0,0,1-.478,0Z" transform="translate(-30.911 -35.281)" fill="#fff"/>
        <path id="Path_1006" data-name="Path 1006" d="M44.938,37.859a5.032,5.032,0,0,1,.567,0c.614.068,1.224.154,1.838.235a8.951,8.951,0,0,1-1.843,1.74c-.9.473-2.674-.5-2.986-1.476-.034-.111.226-.427.371-.461.678-.051,1.361,0,2.043,0Z" transform="translate(-24.381 -21.724)" fill="#fff"/>
        <path id="Path_1007" data-name="Path 1007" d="M80.079,37.9h1.932c.525,0,.729.218.345.7-1.736,2.167-3.135,1.629-4.576-.2-.047-.06.154-.469.252-.473.682-.043,1.365,0,2.047,0Z" transform="translate(-44.602 -21.752)" fill="#fff"/>
      </g>
    </g>
  </g>
</svg>
