<svg xmlns="http://www.w3.org/2000/svg" width="40" height="40" viewBox="0 0 40 40">
  <g id="Group_763" data-name="Group 763" transform="translate(-554 -602)">
    <g id="Ellipse_27" data-name="Ellipse 27" transform="translate(554 602)" fill="#fff" stroke="#272623" stroke-width="1">
      <circle cx="20" cy="20" r="20" stroke="none"/>
      <circle cx="20" cy="20" r="19.5" fill="none"/>
    </g>
    <path id="e639" d="M19.939,0H0V13.26H20.767V0ZM19.11.829,11.066,8.824a.942.942,0,0,1-1.365,0L1.657.829ZM.829,1.121,6.24,6.532.829,11.944Zm.634,11.31L6.825,7.117,9.116,9.409a1.338,1.338,0,0,0,.585.414,1.972,1.972,0,0,0,1.365,0,1.338,1.338,0,0,0,.585-.414l2.291-2.291L19.3,12.431Zm18.476-.487L14.527,6.532l5.411-5.411Zm2.925,5.606" transform="translate(563.209 615.35)"/>
  </g>
</svg>
